<?xml version="1.0" ?><svg viewBox="0 0 64 64" xmlns="http://www.w3.org/2000/svg"><g data-name="filled outline" id="filled_outline"><path d="M32,38.054a1,1,0,0,1-1-1V19a1,1,0,0,1,2,0V37.054A1,1,0,0,1,32,38.054Z" style="fill:#5e8569"/><path d="M20.534,25.314,19,22.867l2.812-.657a8,8,0,0,1,8.6,3.542L31.945,28.2l-2.813.657A8,8,0,0,1,20.534,25.314Z" style="fill:#8dc79d"/><path d="M43.411,25.314l1.534-2.447-2.813-.657a8,8,0,0,0-8.6,3.542L32,28.2l2.812.657A8,8,0,0,0,43.411,25.314Z" style="fill:#8dc79d"/><path d="M39,58H25l-1.889-3.777A20.005,20.005,0,0,1,21,45.279V43H43v2.279a20.005,20.005,0,0,1-2.111,8.944Z" style="fill:#ae8567"/><rect height="6" rx="2" ry="2" style="fill:#c19372" width="28" x="18" y="37"/><path d="M42.979,46H37v2h5.806A19.906,19.906,0,0,0,42.979,46Z" style="fill:#bd9070"/><rect height="2" style="fill:#bd9070" width="2" x="33" y="46"/><rect height="2" style="fill:#bd9070" width="2" x="29" y="46"/><path d="M28.925,18.744,23.98,13.305a3.769,3.769,0,0,1-.226-4.8h0A3.77,3.77,0,0,1,26.769,7H27a3.772,3.772,0,0,1,3.016,1.508L31.885,11l1.869-2.492A3.77,3.77,0,0,1,36.769,7H37a3.772,3.772,0,0,1,3.016,1.508h0a3.77,3.77,0,0,1-.227,4.8l-4.944,5.439A4,4,0,0,1,28.925,18.744Z" style="fill:#f55648"/><rect height="2" style="fill:#9c775c" width="22" x="21" y="43"/><path d="M20,36a3,3,0,0,0-3,3v2a3,3,0,0,0,3,3v1.278a21.112,21.112,0,0,0,2.217,9.392l1.888,3.777A1,1,0,0,0,25,59H39a1,1,0,0,0,.9-.553l1.888-3.777A21.112,21.112,0,0,0,44,45.278V44a3,3,0,0,0,3-3V39a3,3,0,0,0-3-3H33V29.46l1.585.37a9,9,0,0,0,9.673-3.984L45.792,23.4a1,1,0,0,0-.62-1.5l-2.812-.658A9,9,0,0,0,33,24.762V20.919a5,5,0,0,0,2.584-1.5l4.945-5.439A4.77,4.77,0,0,0,37,6h-.23a4.791,4.791,0,0,0-3.816,1.908L31.885,9.333l-1.07-1.425A4.791,4.791,0,0,0,27,6h-.23a4.769,4.769,0,0,0-3.529,7.978l4.944,5.439A5,5,0,0,0,31,20.96v3.816a9,9,0,0,0-9.415-3.606l-2.813.657a1,1,0,0,0-.619,1.5l1.534,2.447a9,9,0,0,0,9.673,3.985L31,29.38V36Zm14.381-9.717a7,7,0,0,1,7.524-3.1l1.449.338-.79,1.261a7,7,0,0,1-7.524,3.1l-1.449-.339Zm-5.476,1.533a7,7,0,0,1-7.524-3.1l-.79-1.261,1.449-.339a7,7,0,0,1,7.524,3.1l.79,1.261ZM42,45.278c0,.241-.012.481-.021.722H37v2h4.794a19.082,19.082,0,0,1-1.8,5.775L38.382,57H25.618l-1.612-3.225A19.083,19.083,0,0,1,22,45.278V44H42ZM29.665,18.071,24.72,12.632A2.769,2.769,0,0,1,26.77,8H27a2.786,2.786,0,0,1,2.216,1.107L31.085,11.6a1.036,1.036,0,0,0,1.6,0l1.869-2.493A2.783,2.783,0,0,1,36.77,8H37a2.769,2.769,0,0,1,2.049,4.632L34.1,18.071A3.067,3.067,0,0,1,29.665,18.071ZM44,38a1,1,0,0,1,1,1v2a1,1,0,0,1-1,1H20a1,1,0,0,1-1-1V39a1,1,0,0,1,1-1Z"/><rect height="2" width="2" x="33" y="46"/><rect height="2" width="2" x="29" y="46"/></g></svg>