<?xml version="1.0" ?><!DOCTYPE svg  PUBLIC '-//W3C//DTD SVG 1.1//EN'  'http://www.w3.org/Graphics/SVG/1.1/DTD/svg11.dtd'><svg enable-background="new 0 0 164 164" height="164px" id="Layer_1" version="1.1" viewBox="0 0 164 164" width="164px" xml:space="preserve" xmlns="http://www.w3.org/2000/svg" xmlns:xlink="http://www.w3.org/1999/xlink"><path clip-rule="evenodd" d="M164.181,85.915l-22.922-22.922V24.252h-21.867v16.874  L82.186,4.092L0.5,85.915h20.058L82.34,24.133l61.784,61.782H164.181L164.181,85.915z M84.016,139.076v-1.419  c-0.259-4.62-3.055-8.971-8.308-10.344c-7.411-1.938-18.083,3.476-27.019,1.326c3.585,7.563,11.695,22.625,21.167,22.578  c6.124-0.03,10.236-2.739,12.392-6.34c-6.992-0.223-13.638-2.182-18.525-5.423c-6.15-4.079-5.761-4.772,1.191-2.642  C70.04,138.383,76.547,139.877,84.016,139.076L84.016,139.076z M85.012,111.231c-3.132-4.062-3.722-9.877,0.195-14.399  c5.016-5.79,16.876-7.364,23.028-14.193c1.324,8.265,3.158,25.272-4.678,30.592c-5.067,3.439-9.99,3.532-13.805,1.782  c5.639-4.139,10.012-9.515,12.208-14.952c2.762-6.843,2.05-7.194-2.478-1.505C96.144,102.752,91.623,107.665,85.012,111.231  L85.012,111.231z M31.281,161.228V84.126L82.34,33.067l51.059,51.059v77.102H88.621v-42.066c4.929,2.047,11.09,1.799,17.315-2.427  c11.021-7.481,7.713-29.395,5.413-40.599c-0.15-0.764-0.717-1.416-1.521-1.635c-1.128-0.309-2.293,0.355-2.602,1.483  c-2.451,8.898-18.954,10.833-25.229,18.079c-6.324,7.299-4.154,16.865,2.018,22.232v11.07c-1.822-1.896-4.23-3.367-7.229-4.151  c-9.273-2.424-23.975,5.318-31.031-0.632c-0.893-0.755-2.229-0.645-2.985,0.248c-0.537,0.636-0.636,1.494-0.329,2.209  c4.443,10.538,14.114,30.479,27.433,30.413c6.366-0.031,11.079-2.387,14.141-5.822v11.598H31.281z" fill="#8DC641" fill-rule="evenodd"/></svg>